<svg width="0" height="0" class="hidden">
  <symbol fill="none" xmlns="http://www.w3.org/2000/svg" viewBox="0 0 18 19" id="Vector">
    <path d="M17.9067 1.74718L13.404 17.1744C13.2569 17.6778 12.8827 18.0088 12.4674 18.0088C12.4547 18.0088 12.442 18.0089 12.4293 18.0082C11.9988 17.9875 11.627 17.6146 11.5063 17.083L8.99189 5.88722L6.45034 17.084C6.32967 17.6155 5.95785 17.9888 5.52728 18.0093C5.09733 18.0281 4.70396 17.6941 4.55262 17.1756L0.0498769 1.74839C-0.144085 1.08349 0.118294 0.343061 0.635546 0.0931723C1.15305 -0.154306 1.72965 0.179549 1.92414 0.844446L5.37 12.6198L8.03037 0.900692C8.15701 0.387656 8.54787 0.0100098 8.99189 0.0100098C9.43591 0.0100098 9.82771 0.387495 9.95248 0.936046L12.6128 12.6551L16.0587 0.8798C16.2532 0.214903 16.8301 -0.118952 17.347 0.127321C17.8661 0.341454 18.1287 1.08228 17.9067 1.74718Z" fill="white"></path>
  </symbol>
  <symbol fill="none" xmlns="http://www.w3.org/2000/svg" viewBox="0 0 18 18" id="car-solid-1">
    <path d="M1.39254 6.91875L2.62969 3.3852C3.10324 2.03133 4.38047 1.125 5.81484 1.125H12.1852C13.6195 1.125 14.8957 2.03133 15.3703 3.3852L16.6078 6.91875C17.4234 7.25625 18 8.06133 18 9V15.75C18 16.3723 17.4973 16.875 16.875 16.875H15.75C15.1277 16.875 14.625 16.3723 14.625 15.75V14.0625H3.375V15.75C3.375 16.3723 2.87121 16.875 2.25 16.875H1.125C0.503789 16.875 0 16.3723 0 15.75V9C0 8.06133 0.575156 7.25625 1.39254 6.91875ZM3.83555 6.75H14.1645L13.2469 4.12734C13.0887 3.67734 12.6633 3.375 12.1852 3.375H5.81484C5.33672 3.375 4.91133 3.67734 4.75312 4.12734L3.83555 6.75ZM3.375 9C2.75379 9 2.25 9.50273 2.25 10.125C2.25 10.7473 2.75379 11.25 3.375 11.25C3.99727 11.25 4.5 10.7473 4.5 10.125C4.5 9.50273 3.99727 9 3.375 9ZM14.625 11.25C15.2473 11.25 15.75 10.7473 15.75 10.125C15.75 9.50273 15.2473 9 14.625 9C14.0027 9 13.5 9.50273 13.5 10.125C13.5 10.7473 14.0027 11.25 14.625 11.25Z" fill="white"></path>
  </symbol>
</svg>